<svg width="1080" height="1080" viewBox="0 0 1080 1080" fill="none" xmlns="http://www.w3.org/2000/svg">
<g clip-path="url(#clip0_1_38)">
<path d="M335.676 503.075L227.504 511.655L229.496 544.138L280.441 540.767C283.713 540.111 287.083 540.126 290.349 540.811C293.615 541.496 296.707 542.836 299.44 544.75C302.897 548.781 304.631 554.009 304.266 559.306C304.176 562.395 303.449 565.431 302.131 568.226C300.813 571.021 298.932 573.513 296.606 575.547C289.507 581.524 281.027 585.632 271.938 587.498C257.557 590.687 242.844 592.128 228.117 591.788C210.038 591.788 197.27 588.647 189.813 582.365C185.745 578.438 182.619 573.642 180.669 568.335C178.718 563.028 177.994 557.348 178.551 551.722C178.553 538.905 182.164 526.347 188.97 515.486C196.688 503.429 206.711 493.015 218.465 484.842C232.673 474.694 248.12 466.405 264.43 460.174C283.952 452.547 304.099 446.626 324.644 442.478L317.367 396.512C297.187 401.327 277.645 408.501 259.144 417.886C241.879 426.612 225.98 437.813 211.953 451.135C198.791 463.645 188.086 478.507 180.39 494.955C172.832 511.409 168.987 529.325 169.129 547.432C168.7 562.69 171.876 577.834 178.398 591.635C184.101 603.308 193.07 613.075 204.215 619.75C216.117 626.472 229.622 629.835 243.286 629.48C256.532 629.949 269.724 627.571 281.973 622.508C291.543 618.497 299.592 611.549 304.956 602.667C310.189 593.51 312.837 583.104 312.617 572.559C312.737 564.737 311.466 556.955 308.863 549.577C307.546 546.112 306.011 542.735 304.266 539.464L338.128 536.783L335.676 503.075Z" fill="#221F20"/>
<path d="M601.279 460.633L560.217 457.339C551.637 489.259 543.976 516.481 537.234 539.004C530.493 561.527 524.491 579.913 519.231 594.162C515.075 605.61 509.949 616.682 503.909 627.257C500.642 633.431 496.282 638.96 491.039 643.575C487.614 646.499 483.284 648.15 478.782 648.248C475.764 648.097 472.859 647.058 470.431 645.26C467.439 642.95 465.243 639.763 464.149 636.144C462.52 630.733 461.795 625.09 462.004 619.443C462.376 607.49 463.812 595.595 466.294 583.897C469.206 568.575 473.342 551.185 478.705 530.271C484.068 509.356 490.35 486.067 497.398 459.79L456.029 456.803C448.521 490.357 441.524 518.447 435.038 541.072C428.526 564.055 422.551 582.211 417.035 596.307C412.944 607.543 407.653 618.305 401.254 628.406C397.619 634.497 392.705 639.725 386.851 643.728C382.475 646.426 377.436 647.858 372.295 647.865C368.703 647.879 365.176 646.898 362.106 645.031C358.714 642.771 356.158 639.461 354.829 635.608C352.843 630.086 351.933 624.235 352.147 618.371C352.334 611.628 353.681 604.967 356.131 598.682C358.736 591.021 362.03 583.36 365.86 573.861C369.691 564.361 373.521 554.479 378.118 543.217C382.714 531.956 386.698 519.392 390.835 505.679C395.333 490.826 398.763 475.669 401.1 460.327L357.127 457.033C354.42 476.9 352.045 495.209 350.002 511.961C347.857 528.738 346.325 543.754 345.176 557.007C344.027 570.26 343.567 581.598 343.567 591.098C343.217 608.333 345.28 625.532 349.696 642.196C352.536 654.092 358.065 665.178 365.86 674.602C368.56 677.965 371.959 680.701 375.822 682.619C379.685 684.537 383.919 685.592 388.23 685.71C394.625 685.714 400.929 684.191 406.616 681.266C413.521 677.391 419.589 672.183 424.466 665.945C431.635 656.884 437.8 647.071 442.852 636.68C446.759 629.019 450.513 619.903 454.573 609.867C455.492 619.673 456.642 628.406 458.021 635.837C459.708 646.37 462.667 656.66 466.831 666.481C469.158 672.581 473.17 677.894 478.398 681.803C482.365 684.467 487.027 685.905 491.805 685.94C498.609 685.873 505.273 683.996 511.11 680.5C518.809 675.447 525.317 668.781 530.186 660.965C538.149 648.462 544.896 635.225 550.334 621.435C557.382 604.428 565.043 582.799 573.317 556.547C581.591 530.296 590.911 498.325 601.279 460.633Z" fill="#221F20"/>
<path d="M736.187 425.316C732.777 417.593 727.514 410.831 720.865 405.628C714.843 401.025 707.453 398.571 699.874 398.656C691.612 398.672 683.482 400.724 676.202 404.632C667.181 409.846 659.352 416.892 653.22 425.316C643.806 437.892 635.743 451.424 629.164 465.689C620.891 482.747 611.851 504.249 602.045 530.194C592.239 556.138 581.565 587.42 570.022 624.039L612.387 627.333C617.494 609.713 622.602 593.549 627.709 578.84C632.816 564.131 637.183 551.363 640.809 540.536L707.765 536.629L709.067 504.223C700.958 505.216 693.005 507.224 685.395 510.199C677.134 513.263 669.118 516.951 661.417 521.23C654.992 524.814 648.869 528.913 643.107 533.488C650.768 513.952 657.357 497.788 663.562 485.224C668.625 474.375 674.841 464.101 682.101 454.581C686.665 448.5 692.493 443.481 699.185 439.872C704.425 437.275 710.19 435.912 716.039 435.888C720.469 435.731 724.86 436.762 728.756 438.876C732.407 441.13 735.249 444.482 736.876 448.452C739.077 454.03 740.094 460.004 739.864 465.995C739.715 472.594 738.552 479.131 736.417 485.377C734.042 492.502 731.131 500.699 727.453 509.509C723.776 518.319 719.793 528.585 715.503 540.153C711.212 551.721 707.076 564.055 702.939 578.074C698.592 593.341 695.239 608.874 692.903 624.576L736.876 627.87C739.328 607.798 741.32 589.565 743.005 573.631C744.69 557.696 745.993 542.987 746.989 529.734C747.985 516.481 748.444 504.53 748.444 493.498C748.526 480.967 747.475 468.454 745.303 456.113C743.639 445.489 740.573 435.134 736.187 425.316Z" fill="#221F20"/>
<path d="M875.461 613.085C864.843 608.883 854.964 603.013 846.197 595.695C839.487 589.931 833.448 583.429 828.194 576.313C842.872 571.36 856.993 564.89 870.329 557.008C880.4 551.301 888.78 543.027 894.614 533.029C899.299 523.542 900.88 512.821 899.134 502.386C896.376 482.314 889.098 468.065 877.147 459.791C863.468 451.204 847.037 448.137 831.182 451.211C823.318 452.238 815.603 454.192 808.199 457.033C801.076 459.919 794.727 464.432 789.66 470.21C783.31 477.723 778.354 486.31 775.027 495.567C770.123 509.162 766.657 523.232 764.685 537.549C762.081 554.786 759.935 575.853 758.327 600.904C756.718 625.956 755.799 655.756 755.569 690.23L798.24 687.166C798.24 656.522 798.853 630.629 799.849 609.102C800.845 587.575 802.147 569.725 803.909 555.475C805.09 543.757 807.425 532.184 810.88 520.925C812.94 513.829 816.347 507.197 820.916 501.39C824.458 497.241 829.068 494.141 834.246 492.426C839.83 490.584 845.576 489.276 851.406 488.519C858.255 487.392 865.242 487.392 872.091 488.519C877.428 489.447 882.424 491.773 886.57 495.261C890.146 498.365 892.463 502.67 893.082 507.365C893.622 511.143 893.173 514.997 891.779 518.55C889.581 522.874 886.174 526.467 881.973 528.892C874.697 533.322 866.998 537.018 858.991 539.924C848.776 543.908 834.808 548.427 817.086 553.484C819.852 573.278 825.856 592.483 834.859 610.327C842.631 625.677 853.634 639.163 867.111 649.858C880.71 660.38 896.371 667.923 913.076 671.997L916.83 623.427C902.657 621.751 888.756 618.276 875.461 613.085Z" fill="#221F20"/>
<path d="M329.701 496.563L221.529 505.143L223.521 537.625L274.466 534.254C277.75 533.593 281.133 533.605 284.412 534.289C287.691 534.974 290.797 536.317 293.541 538.238C296.949 542.292 298.652 547.51 298.291 552.794C298.22 555.886 297.501 558.928 296.181 561.726C294.862 564.523 292.971 567.013 290.63 569.035C283.563 575 275.105 579.084 266.039 580.909C251.642 584.162 236.898 585.629 222.142 585.276C204.062 585.276 191.294 582.109 183.838 575.776C179.756 571.86 176.62 567.064 174.669 561.755C172.718 556.445 172.002 550.76 172.576 545.133C172.615 532.321 176.223 519.773 182.995 508.897C190.738 496.86 200.757 486.45 212.489 478.253C226.713 468.15 242.157 459.888 258.455 453.662C278.016 446.053 298.185 440.108 318.746 435.889L311.468 389.923C291.254 394.703 271.682 401.879 253.169 411.297C235.915 420.005 220.04 431.208 206.054 444.545C192.848 457.034 182.114 471.901 174.415 488.366C166.883 504.826 163.065 522.742 163.23 540.843C162.806 556.068 165.955 571.18 172.423 584.969C178.103 596.678 187.075 606.476 198.24 613.161C210.142 619.883 223.646 623.246 237.311 622.891C250.557 623.359 263.749 620.982 275.998 615.919C285.565 611.904 293.612 604.957 298.981 596.078C304.247 586.934 306.897 576.519 306.642 565.97C306.745 558.142 305.448 550.359 302.811 542.988C301.526 539.51 299.989 536.13 298.215 532.875L332.076 530.194L329.701 496.563Z" fill="#E7E6DB"/>
<path d="M595.303 454.122L554.318 450.752C545.686 482.774 538.026 510.021 531.335 532.493C524.67 555.016 518.618 573.402 513.332 587.651C509.304 599.052 504.333 610.096 498.47 620.67C495.172 626.867 490.787 632.42 485.523 637.064C482.098 639.988 477.768 641.639 473.266 641.737C470.012 641.727 466.845 640.68 464.226 638.75C461.227 636.429 459.009 633.249 457.867 629.633C456.277 624.214 455.553 618.578 455.722 612.932C456.088 600.975 457.549 589.076 460.089 577.386C462.923 562.447 467.06 544.674 472.5 523.76C477.939 502.846 484.068 479.557 491.192 453.28L449.823 450.292C442.316 483.847 435.293 511.937 428.756 534.562C422.244 557.544 416.269 575.701 410.753 589.797C406.805 601.012 401.668 611.773 395.431 621.896C391.763 627.96 386.855 633.181 381.029 637.217C376.659 639.93 371.616 641.364 366.473 641.354C362.862 641.398 359.31 640.443 356.207 638.596C352.838 636.312 350.288 633.01 348.93 629.173C346.976 623.643 346.067 617.799 346.248 611.936C346.473 605.198 347.819 598.544 350.232 592.248C352.913 584.587 356.131 576.926 360.038 567.427C363.945 557.927 367.699 548.045 372.219 536.783C376.739 525.522 380.799 512.958 385.012 499.245C389.438 484.372 392.867 469.221 395.278 453.893L351.228 450.598C348.623 470.466 346.248 488.775 344.103 505.527C341.958 522.279 340.375 537.294 339.354 550.573C338.204 563.75 337.668 575.164 337.668 584.587C337.352 601.846 339.414 619.066 343.797 635.762C346.662 647.663 352.218 658.749 360.038 668.167C362.722 671.529 366.108 674.265 369.958 676.183C373.808 678.102 378.031 679.157 382.331 679.276C388.724 679.26 395.023 677.738 400.717 674.832C407.622 670.957 413.69 665.749 418.567 659.511C425.752 650.433 431.918 640.594 436.953 630.169C440.86 622.509 444.614 613.392 448.674 603.433C449.67 613.239 450.819 621.972 452.198 629.403C453.829 639.94 456.762 650.233 460.932 660.047C463.285 666.132 467.291 671.439 472.5 675.369C476.472 678.02 481.13 679.458 485.906 679.505C492.736 679.453 499.428 677.575 505.288 674.066C512.962 669.008 519.444 662.342 524.287 654.531C532.31 642.05 539.084 628.809 544.512 615.001C551.56 597.994 559.221 576.365 567.494 550.113C575.768 523.862 585.038 491.865 595.303 454.122Z" fill="#E7E6DB"/>
<path d="M730.288 418.805C726.867 411.088 721.606 404.328 714.966 399.116C708.967 394.471 701.562 392.011 693.976 392.145C685.716 392.179 677.59 394.231 670.303 398.12C661.298 403.357 653.474 410.399 647.321 418.805C637.935 431.385 629.898 444.917 623.342 459.178C615.069 476.287 606.029 497.788 596.223 523.682C586.417 549.576 575.666 580.858 563.971 617.528L606.259 620.822C611.621 603.202 616.728 587.038 621.58 572.329C626.432 557.62 630.824 544.852 634.757 534.024L701.636 530.117L703.015 497.712C694.906 498.705 686.953 500.712 679.343 503.687C671.076 506.737 663.059 510.425 655.365 514.719C648.946 518.322 642.8 522.394 636.979 526.9C644.64 507.441 651.228 491.277 657.51 478.636C662.555 467.777 668.772 457.502 676.049 447.993C680.565 441.896 686.373 436.874 693.056 433.284C698.296 430.687 704.062 429.324 709.91 429.3C714.364 429.144 718.78 430.175 722.704 432.288C726.333 434.546 729.15 437.899 730.748 441.864C732.948 447.442 733.966 453.416 733.736 459.407C733.586 466.006 732.424 472.543 730.288 478.789C727.99 485.888 725.002 493.932 721.325 502.921C717.724 511.884 713.664 521.92 709.451 533.565C705.237 545.209 700.947 557.467 696.887 571.869C692.513 587.134 689.135 602.668 686.774 618.371L730.748 621.665C733.199 601.593 735.242 583.514 736.877 567.426C738.562 551.261 739.864 536.782 740.86 523.529C741.856 510.276 742.392 498.325 742.392 487.293C742.439 474.763 741.388 462.254 739.251 449.908C737.625 439.195 734.612 428.74 730.288 418.805Z" fill="#E7E6DB"/>
<path d="M869.563 606.956C858.935 602.772 849.053 596.9 840.298 589.566C833.544 583.824 827.477 577.32 822.218 570.184C836.914 565.215 851.059 558.745 864.43 550.879C874.486 545.152 882.861 536.883 888.715 526.9C893.369 517.403 894.923 506.684 893.158 496.257C890.477 476.185 883.122 461.936 871.171 453.662C857.501 445.053 841.061 441.984 825.206 445.082C817.337 446.079 809.619 448.034 802.223 450.904C795.111 453.81 788.767 458.319 783.684 464.081C777.361 471.599 772.432 480.187 769.128 489.438C764.215 503.03 760.749 517.102 758.786 531.42C756.08 548.58 753.934 569.699 752.351 594.775C750.768 619.852 749.798 649.449 749.44 683.565L792.035 680.501C792.035 649.857 792.647 623.963 793.643 602.436C794.639 580.909 795.942 563.059 797.704 548.81C798.922 537.098 801.256 525.528 804.675 514.26C806.766 507.176 810.171 500.55 814.711 494.724C818.269 490.576 822.871 487.455 828.041 485.685C833.639 483.914 839.381 482.633 845.201 481.854C852.072 480.69 859.091 480.69 865.962 481.854C871.275 482.74 876.25 485.043 880.365 488.519C883.969 491.633 886.289 495.973 886.876 500.7C887.417 504.478 886.968 508.332 885.574 511.885C883.402 516.227 879.989 519.827 875.768 522.227C868.508 526.687 860.806 530.384 852.785 533.259C842.443 537.242 828.424 541.762 810.88 546.818C813.676 566.606 819.679 585.806 828.654 603.662C836.45 618.996 847.449 632.477 860.906 643.192C874.522 653.687 890.177 661.228 906.871 665.332L910.625 616.762C896.577 615.249 882.778 611.954 869.563 606.956Z" fill="#E7E6DB"/>
</g>
<defs>
<clipPath id="clip0_1_38">
<rect width="753.294" height="300" fill="white" transform="translate(163 390)"/>
</clipPath>
</defs>
</svg>
